PathFileType	4	(X/Y/Z)	./resultDataOpenSim/trcMotMarkerGrf/sub10/qtm-14-02.trc
DataRate	CameraRate	NumFrames	NumMarkers	Units	OrigDataRate	OrigDataStartFrame	OrigNumFrames
250.000000	250.000000	5	24	m	250.000000	184	490
Frame#	Time	L.Toe.Tip			R.Toe.Tip			L.Ankle.Lat			R.Ankle.Lat			L.Ankle.Med			R.Ankle.Med			L.Heel			R.Heel			L.Knee.Lat			R.Knee.Lat			L.Knee.Med			R.Knee.Med			L.Thigh.Upper			R.Thigh.Upper			L.ASIS			R.ASIS			V.Sacral			L.Acromium			R.Acromium			C7			L.Elbow			R.Elbow			L.Wrist.Lat			R.Wrist.Lat
		X1	Y1	Z1	X2	Y2	Z2	X3	Y3	Z3	X4	Y4	Z4	X5	Y5	Z5	X6	Y6	Z6	X7	Y7	Z7	X8	Y8	Z8	X9	Y9	Z9	X10	Y10	Z10	X11	Y11	Z11	X12	Y12	Z12	X13	Y13	Z13	X14	Y14	Z14	X15	Y15	Z15	X16	Y16	Z16	X17	Y17	Z17	X18	Y18	Z18	X19	Y19	Z19	X20	Y20	Z20	X21	Y21	Z21	X22	Y22	Z22	X23	Y23	Z23	X24	Y24	Z24

184	0.732	0.050258181	-0.033284389	-0.063491219	-0.58318421	0.090219814	0.05876543	-0.081284779	-0.0059241832	-0.11300129	-0.61147391	0.23678621	0.066527933	-0.088886633	0.016920004	-0.030452744	-0.56191562	0.21006985	-0.0007884557	-0.15032107	-0.038131935	-0.082684805	-0.63968755	0.262461	0.004669911	-0.049760381	0.37919747	-0.14652493	-0.27857268	0.38783109	0.14723899	-0.067000337	0.36479059	-0.025536063	-0.20387188	0.35014324	0.035847934	-0.12014936	0.75809835	-0.22301129	-0.25328536	0.79110284	0.13934986	-0.093531597	0.85837097	-0.13335954	-0.15450462	0.87818427	0.081596925	-0.30935347	0.89181261	-0.096695527	-0.16213806	1.3388937	-0.2197271	-0.2346554	1.3489714	0.091320438	-0.2715459	1.3620049	-0.085056294	-0.35639773	1.0667646	-0.28955209	-0.32809477	1.0252474	0.2142082	-0.30443342	0.83132796	-0.32148869	-0.10849672	0.91898406	0.28019146
185	0.736	0.050524103	-0.033360255	-0.063667956	-0.56906101	0.096514023	0.066013592	-0.080589945	-0.0057660083	-0.11334293	-0.59736546	0.24275027	0.06834429	-0.087961642	0.017610991	-0.030902188	-0.54843505	0.21467907	0.00096336359	-0.15018779	-0.037580065	-0.082643223	-0.62578897	0.26706527	0.0058052492	-0.041656295	0.38006099	-0.14612998	-0.26283724	0.38650582	0.14873373	-0.060798788	0.36635307	-0.025934235	-0.18884839	0.35075923	0.03612465	-0.11637346	0.75828746	-0.22386159	-0.24533084	0.78853363	0.14000725	-0.088632697	0.85685447	-0.13398868	-0.14836675	0.87650195	0.08026007	-0.30520609	0.89062025	-0.09625355	-0.15385821	1.3378306	-0.21980426	-0.22715972	1.3483457	0.091245663	-0.26340471	1.3618004	-0.086051956	-0.34609575	1.0641618	-0.29232062	-0.32363805	1.0254091	0.21361402	-0.29304319	0.82944281	-0.32502562	-0.10664436	0.91807949	0.28492775
186	0.74	0.050800336	-0.033433408	-0.063862954	-0.55425576	0.10296537	0.0729601	-0.079867022	-0.00571912	-0.11378784	-0.58284008	0.24872339	0.070202308	-0.087124624	0.018179973	-0.031383987	-0.53460694	0.21903636	0.0028856977	-0.14993072	-0.037000588	-0.082617873	-0.61163076	0.2713227	0.0069358955	-0.033985529	0.38050813	-0.14595534	-0.24671652	0.38554715	0.15002234	-0.053880448	0.36746798	-0.02644586	-0.17386622	0.35175164	0.036269624	-0.11255792	0.75818798	-0.22444881	-0.23752474	0.78602918	0.14066426	-0.083731402	0.85559783	-0.13478141	-0.14260308	0.87500971	0.079154396	-0.30115858	0.88936398	-0.095507315	-0.14561691	1.3368246	-0.21976287	-0.21943552	1.347818	0.091152509	-0.25481353	1.3620157	-0.086881897	-0.33573396	1.0615979	-0.29500995	-0.31931517	1.0257726	0.21309612	-0.28130722	0.82769406	-0.32875957	-0.10494739	0.91744101	0.28981803
187	0.744	0.051058592	-0.033500368	-0.064062345	-0.53894713	0.1095349	0.07950234	-0.079170567	-0.0057285544	-0.1142563	-0.56791161	0.25461769	0.072179518	-0.086385481	0.018646475	-0.031826338	-0.52043396	0.22311795	0.0050923757	-0.14960181	-0.036398922	-0.082543427	-0.59730944	0.27545387	0.0083299784	-0.026919841	0.38054925	-0.14597176	-0.23031911	0.38494003	0.15119704	-0.046443736	0.36811992	-0.027014108	-0.15893352	0.35301209	0.036311758	-0.10872706	0.75786028	-0.22481671	-0.22985171	0.78366998	0.14130568	-0.078830847	0.85460248	-0.1357983	-0.13717779	0.87370996	0.078304719	-0.29718552	0.88810176	-0.094294973	-0.137385	1.3358507	-0.21961645	-0.21154315	1.3473618	0.091024562	-0.24600509	1.3624855	-0.087462515	-0.32538769	1.0591081	-0.29751792	-0.31512492	1.0263121	0.21264034	-0.26930485	0.82608008	-0.33262878	-0.10337743	0.9171141	0.29486609
188	0.748	0.05128392	-0.033561851	-0.064254494	-0.52321297	0.11610454	0.08560386	-0.078538147	-0.0057345966	-0.11466287	-0.55263715	0.26026821	0.074335871	-0.08570554	0.019053117	-0.032169691	-0.50591814	0.22700282	0.007540837	-0.14929335	-0.035788715	-0.082471361	-0.58279463	0.27957069	0.010144734	-0.020572042	0.38021513	-0.14614291	-0.2137238	0.38469372	0.15230475	-0.038740258	0.36833771	-0.027567496	-0.14406444	0.35447713	0.036252096	-0.10489295	0.75737538	-0.22504353	-0.22232984	0.78153106	0.14193198	-0.073949054	0.85385483	-0.13707662	-0.13203137	0.87256906	0.07771077	-0.29326403	0.88689088	-0.092567763	-0.12914606	1.3348967	-0.21937775	-0.20352185	1.3469511	0.090859964	-0.23724374	1.3630248	-0.087795378	-0.31505805	1.0567148	-0.29983536	-0.31097952	1.0269963	0.21221906	-0.25705257	0.82459798	-0.33662141	-0.10194335	0.91711256	0.30006415
